<?xml version="1.0" encoding="utf-8"?>
<!-- Svg Vector Icons : http://www.onlinewebfonts.com/icon -->
<!DOCTYPE svg PUBLIC "-//W3C//DTD SVG 1.1//EN" "http://www.w3.org/Graphics/SVG/1.1/DTD/svg11.dtd">
<svg version="1.1" xmlns="http://www.w3.org/2000/svg" xmlns:xlink="http://www.w3.org/1999/xlink" x="0px" y="0px" viewBox="0 0 256 256" enable-background="new 0 0 256 256" xml:space="preserve">
<metadata> Svg Vector Icons : http://www.onlinewebfonts.com/icon </metadata>
<g><g><path fill="#000000" d="M200.4,119.1C196,82.6,164.8,55.1,128,55.1c-36.9,0-68,27.5-72.4,64.1H10v17.7h45.6c4.4,36.5,35.5,64.1,72.4,64.1c36.9,0,68-27.5,72.4-64.1H246v-17.7H200.4z M128,183.2c-30.5,0-55.2-24.7-55.2-55.2c0-30.5,24.7-55.2,55.2-55.2c30.5,0,55.2,24.7,55.2,55.2C183.2,158.5,158.5,183.2,128,183.2z"/><path fill="#000000" d="M121.9,90.5H134l24.9,64.8h-12.2l-6.1-17.1h-25.8l-6.1,17.1H97.1L121.9,90.5z M117.9,129.5h19.8l-9.7-27.8h-0.3L117.9,129.5z"/></g></g>
</svg>