<?xml version="1.0" encoding="iso-8859-1"?>
<!-- Generator: Adobe Illustrator 23.0.5, SVG Export Plug-In . SVG Version: 6.00 Build 0)  -->
<svg version="1.1" xmlns="http://www.w3.org/2000/svg" xmlns:xlink="http://www.w3.org/1999/xlink" x="0px" y="0px"
	 viewBox="0 0 492 492" style="enable-background:new 0 0 492 492;" xml:space="preserve">
<g id="Master_Layer_2">
</g>
<g id="Layer_1">
	<g>
		<g>
			<g>
				<g>
					<g>
						<path style="fill-rule:evenodd;clip-rule:evenodd;fill:#212121;" d="M67.694,227.905c-2.232,0-4.296-1.296-5.232-3.384
							c-1.032-2.256-0.48-4.92,1.344-6.624l69.288-63.864c0.912-0.84,2.064-1.368,3.288-1.488l94.728-10.152
							c2.472-0.264,4.824,1.08,5.856,3.36c1.032,2.256,0.48,4.92-1.344,6.624l-69.288,63.84c-0.912,0.84-2.064,1.368-3.288,1.488
							l-94.728,10.152C68.102,227.905,67.886,227.905,67.694,227.905L67.694,227.905z M139.478,163.8l-55.056,50.76l75.504-8.088
							l55.056-50.76L139.478,163.8z"/>
					</g>
					<g>
						<path style="fill-rule:evenodd;clip-rule:evenodd;fill:#212121;" d="M132.734,275.4c-4.68,0-8.88-0.432-12.336-1.248
							c-6.096-1.44-10.104-4.152-11.928-8.016L89.606,226.32c-1.368-2.88-0.144-6.312,2.736-7.68c2.88-1.368,6.312-0.144,7.68,2.736
							l18.84,39.768c0.144,0.168,1.296,1.272,5.328,2.04c3.864,0.744,8.904,0.888,14.592,0.456
							c13.368-1.056,28.56-5.16,42.768-11.568c14.136-6.384,27.144-14.976,36.6-24.192c4.032-3.912,7.176-7.752,9.096-11.064
							c1.992-3.432,1.92-4.968,1.896-5.208l-18.84-39.744c-1.368-2.88-0.144-6.312,2.736-7.68s6.312-0.144,7.68,2.736l18.864,39.816
							c1.488,3.144,1.44,6.864-0.096,11.088c-2.472,6.72-8.928,14.808-18.168,22.752c-9.864,8.496-21.984,16.08-35.016,21.984
							c-15.96,7.2-33.024,11.688-48.048,12.648C136.358,275.352,134.51,275.4,132.734,275.4L132.734,275.4z M118.838,261.12
							L118.838,261.12L118.838,261.12z"/>
					</g>
				</g>
				<g>
					<path style="fill-rule:evenodd;clip-rule:evenodd;fill:#212121;" d="M79.502,295.632L79.502,295.632
						c-3.192,0-5.784-2.592-5.76-5.784l0.264-69.024c0-3.168,2.592-5.736,5.76-5.736h0.024c3.192,0,5.76,2.592,5.736,5.784
						l-0.264,69.024C85.262,293.064,82.67,295.632,79.502,295.632z"/>
				</g>
				<g>
					<g>
						<g>
							<path style="fill-rule:evenodd;clip-rule:evenodd;fill:#212121;" d="M424.814,351.12H126.566c-3.192,0-5.76-2.568-5.76-5.76
								v-75.72c0-3.192,2.568-5.76,5.76-5.76c3.192,0,5.76,2.568,5.76,5.76v69.96h286.727V217.488H234.902
								c-3.192,0-5.76-2.568-5.76-5.76c0-3.192,2.568-5.76,5.76-5.76h189.912c3.192,0,5.76,2.568,5.76,5.76V345.36
								C430.574,348.552,428.005,351.12,424.814,351.12z"/>
						</g>
						<g>
							<g>
								<g>
									<path style="fill-rule:evenodd;clip-rule:evenodd;fill:#212121;" d="M201.758,300.816h-44.064
										c-3.192,0-5.76-2.568-5.76-5.76c0-3.192,2.568-5.76,5.76-5.76h44.064c3.192,0,5.76,2.568,5.76,5.76
										C207.518,298.248,204.926,300.816,201.758,300.816z"/>
								</g>
							</g>
							<g>
								<g>
									<path style="fill-rule:evenodd;clip-rule:evenodd;fill:#212121;" d="M393.661,267.792h-44.064
										c-3.192,0-5.76-2.568-5.76-5.76c0-3.192,2.568-5.76,5.76-5.76h44.064c3.192,0,5.76,2.568,5.76,5.76
										C399.421,265.224,396.853,267.792,393.661,267.792z"/>
								</g>
								<g>
									<path style="fill-rule:evenodd;clip-rule:evenodd;fill:#212121;" d="M393.661,300.816h-44.064
										c-3.192,0-5.76-2.568-5.76-5.76c0-3.192,2.568-5.76,5.76-5.76h44.064c3.192,0,5.76,2.568,5.76,5.76
										C399.421,298.248,396.853,300.816,393.661,300.816z"/>
								</g>
							</g>
						</g>
					</g>
					<g>
						<g>
							<path style="fill-rule:evenodd;clip-rule:evenodd;fill:#212121;" d="M275.678,317.376c-11.328,0-21.216-6.84-24.072-16.632
								c-0.888-3.048,0.864-6.24,3.912-7.152c3.048-0.888,6.24,0.864,7.152,3.912c1.416,4.824,6.864,8.328,13.008,8.328
								c7.368,0,13.344-4.824,13.344-10.776c0-1.8,0-7.224-14.712-10.92c-6.36-1.464-11.544-3.744-15.456-6.744
								c-5.28-4.032-8.064-9.36-8.064-15.384c0-12.288,11.16-22.296,24.864-22.296c11.232,0,21.096,6.768,24.024,16.464
								c0.912,3.048-0.816,6.264-3.864,7.176c-3.048,0.912-6.264-0.816-7.176-3.864c-1.44-4.776-6.888-8.256-12.984-8.256
								c-7.368,0-13.344,4.824-13.344,10.776c0,1.512,0.36,3.816,3.552,6.24c2.568,1.968,6.408,3.576,11.112,4.68
								c0.024,0,0.072,0.024,0.096,0.024c6.72,1.68,11.856,3.936,15.648,6.864c5.112,3.936,7.824,9.216,7.824,15.264
								C300.566,307.368,289.406,317.376,275.678,317.376z"/>
						</g>
						<g>
							<path style="fill-rule:evenodd;clip-rule:evenodd;fill:#212121;" d="M275.678,327.192c-3.192,0-5.76-2.568-5.76-5.76v-85.751
								c0-3.192,2.568-5.76,5.76-5.76s5.76,2.568,5.76,5.76v85.752C281.438,324.6,278.87,327.192,275.678,327.192z"/>
						</g>
					</g>
				</g>
			</g>
		</g>
	</g>
</g>
</svg>
